<mxfile host="app.diagrams.net" modified="2021-03-17T13:05:51.796Z" agent="5.0 (Windows NT 10.0; Win64; x64) AppleWebKit/537.36 (KHTML, like Gecko) Chrome/88.0.4324.152 YaBrowser/21.2.3.100 Yowser/2.5 Safari/537.36" etag="pmupIw60OL9RUTcp6QJQ" version="14.4.8" type="github">
  <diagram id="Wds3WwnXhRN4io4Kgcd5" name="Page-1">
    <mxGraphModel dx="1673" dy="928" grid="1" gridSize="10" guides="1" tooltips="1" connect="1" arrows="1" fold="1" page="1" pageScale="1" pageWidth="2339" pageHeight="3300" math="0" shadow="0">
      <root>
        <mxCell id="0" />
        <mxCell id="1" parent="0" />
        <mxCell id="EYJ2kRQVxU2eaPTJzhmD-4" style="edgeStyle=orthogonalEdgeStyle;rounded=0;orthogonalLoop=1;jettySize=auto;html=1;exitX=1;exitY=0.5;exitDx=0;exitDy=0;" parent="1" source="EYJ2kRQVxU2eaPTJzhmD-1" target="EYJ2kRQVxU2eaPTJzhmD-2" edge="1">
          <mxGeometry relative="1" as="geometry" />
        </mxCell>
        <mxCell id="EYJ2kRQVxU2eaPTJzhmD-1" value="" style="rounded=1;whiteSpace=wrap;html=1;absoluteArcSize=1;arcSize=14;strokeWidth=2;" parent="1" vertex="1">
          <mxGeometry x="64" y="1001.5" width="100" height="200" as="geometry" />
        </mxCell>
        <mxCell id="EYJ2kRQVxU2eaPTJzhmD-2" value="" style="rounded=1;whiteSpace=wrap;html=1;absoluteArcSize=1;arcSize=14;strokeWidth=2;" parent="1" vertex="1">
          <mxGeometry x="244" y="1001.5" width="100" height="200" as="geometry" />
        </mxCell>
        <mxCell id="EYJ2kRQVxU2eaPTJzhmD-20" style="edgeStyle=orthogonalEdgeStyle;rounded=0;orthogonalLoop=1;jettySize=auto;html=1;exitX=1;exitY=0.5;exitDx=0;exitDy=0;entryX=0;entryY=0.5;entryDx=0;entryDy=0;" parent="1" source="EYJ2kRQVxU2eaPTJzhmD-5" target="EYJ2kRQVxU2eaPTJzhmD-14" edge="1">
          <mxGeometry relative="1" as="geometry" />
        </mxCell>
        <mxCell id="EYJ2kRQVxU2eaPTJzhmD-5" value="Настольные игры" style="rounded=1;whiteSpace=wrap;html=1;absoluteArcSize=1;arcSize=14;strokeWidth=2;" parent="1" vertex="1">
          <mxGeometry x="249" y="1041.5" width="90" height="30" as="geometry" />
        </mxCell>
        <mxCell id="SFY8rmF3XhI637HiAEmH-7" style="edgeStyle=orthogonalEdgeStyle;rounded=0;orthogonalLoop=1;jettySize=auto;html=1;exitX=1;exitY=0.5;exitDx=0;exitDy=0;entryX=0;entryY=0.5;entryDx=0;entryDy=0;" edge="1" parent="1" source="EYJ2kRQVxU2eaPTJzhmD-6" target="SFY8rmF3XhI637HiAEmH-1">
          <mxGeometry relative="1" as="geometry" />
        </mxCell>
        <mxCell id="EYJ2kRQVxU2eaPTJzhmD-6" value="Инструментарий" style="rounded=1;whiteSpace=wrap;html=1;absoluteArcSize=1;arcSize=14;strokeWidth=2;" parent="1" vertex="1">
          <mxGeometry x="249" y="1086.5" width="90" height="30" as="geometry" />
        </mxCell>
        <mxCell id="SFY8rmF3XhI637HiAEmH-98" style="edgeStyle=orthogonalEdgeStyle;rounded=0;orthogonalLoop=1;jettySize=auto;html=1;exitX=1;exitY=0.5;exitDx=0;exitDy=0;entryX=0;entryY=0.5;entryDx=0;entryDy=0;strokeColor=#000000;fontSize=11;" edge="1" parent="1" source="EYJ2kRQVxU2eaPTJzhmD-7" target="SFY8rmF3XhI637HiAEmH-80">
          <mxGeometry relative="1" as="geometry" />
        </mxCell>
        <mxCell id="EYJ2kRQVxU2eaPTJzhmD-7" value="D&amp;amp;D помощник" style="rounded=1;whiteSpace=wrap;html=1;absoluteArcSize=1;arcSize=14;strokeWidth=2;" parent="1" vertex="1">
          <mxGeometry x="249" y="1131.5" width="90" height="30" as="geometry" />
        </mxCell>
        <mxCell id="EYJ2kRQVxU2eaPTJzhmD-8" value="Меню" style="text;html=1;strokeColor=none;fillColor=none;align=center;verticalAlign=middle;whiteSpace=wrap;rounded=0;" parent="1" vertex="1">
          <mxGeometry x="274" y="971.5" width="40" height="20" as="geometry" />
        </mxCell>
        <mxCell id="EYJ2kRQVxU2eaPTJzhmD-9" value="Загрузочный экран" style="text;html=1;strokeColor=none;fillColor=none;align=center;verticalAlign=middle;whiteSpace=wrap;rounded=0;" parent="1" vertex="1">
          <mxGeometry x="94" y="971.5" width="40" height="20" as="geometry" />
        </mxCell>
        <mxCell id="EYJ2kRQVxU2eaPTJzhmD-13" value="&lt;b&gt;&lt;font style=&quot;font-size: 13px&quot;&gt;Лого &lt;/font&gt;&lt;/b&gt;(?)" style="ellipse;whiteSpace=wrap;html=1;aspect=fixed;" parent="1" vertex="1">
          <mxGeometry x="84" y="1071.5" width="60" height="60" as="geometry" />
        </mxCell>
        <mxCell id="EYJ2kRQVxU2eaPTJzhmD-14" value="" style="rounded=1;whiteSpace=wrap;html=1;absoluteArcSize=1;arcSize=14;strokeWidth=2;" parent="1" vertex="1">
          <mxGeometry x="430" y="200" width="100" height="200" as="geometry" />
        </mxCell>
        <mxCell id="SFY8rmF3XhI637HiAEmH-8" style="edgeStyle=orthogonalEdgeStyle;rounded=0;orthogonalLoop=1;jettySize=auto;html=1;exitX=1;exitY=0.5;exitDx=0;exitDy=0;entryX=0;entryY=0;entryDx=0;entryDy=0;" edge="1" parent="1" source="EYJ2kRQVxU2eaPTJzhmD-15" target="EYJ2kRQVxU2eaPTJzhmD-26">
          <mxGeometry relative="1" as="geometry">
            <Array as="points">
              <mxPoint x="567" y="265" />
              <mxPoint x="567" y="180" />
            </Array>
          </mxGeometry>
        </mxCell>
        <mxCell id="EYJ2kRQVxU2eaPTJzhmD-15" value="Существующие игры" style="rounded=1;whiteSpace=wrap;html=1;absoluteArcSize=1;arcSize=14;strokeWidth=2;" parent="1" vertex="1">
          <mxGeometry x="435" y="240" width="90" height="50" as="geometry" />
        </mxCell>
        <mxCell id="EYJ2kRQVxU2eaPTJzhmD-33" style="edgeStyle=orthogonalEdgeStyle;rounded=0;orthogonalLoop=1;jettySize=auto;html=1;exitX=1;exitY=0.5;exitDx=0;exitDy=0;entryX=0;entryY=0.55;entryDx=0;entryDy=0;entryPerimeter=0;" parent="1" source="EYJ2kRQVxU2eaPTJzhmD-16" target="EYJ2kRQVxU2eaPTJzhmD-31" edge="1">
          <mxGeometry relative="1" as="geometry" />
        </mxCell>
        <mxCell id="EYJ2kRQVxU2eaPTJzhmD-16" value="Игры, созданные мной" style="rounded=1;whiteSpace=wrap;html=1;absoluteArcSize=1;arcSize=14;strokeWidth=2;" parent="1" vertex="1">
          <mxGeometry x="435" y="315" width="90" height="50" as="geometry" />
        </mxCell>
        <mxCell id="EYJ2kRQVxU2eaPTJzhmD-17" value="Настольные игры" style="text;html=1;strokeColor=none;fillColor=none;align=center;verticalAlign=middle;whiteSpace=wrap;rounded=0;" parent="1" vertex="1">
          <mxGeometry x="460" y="170" width="40" height="20" as="geometry" />
        </mxCell>
        <mxCell id="EYJ2kRQVxU2eaPTJzhmD-19" value="" style="rounded=1;whiteSpace=wrap;html=1;absoluteArcSize=1;arcSize=14;strokeWidth=2;" parent="1" vertex="1">
          <mxGeometry x="610" y="80" width="100" height="200" as="geometry" />
        </mxCell>
        <mxCell id="EYJ2kRQVxU2eaPTJzhmD-21" value="Существующие игры" style="text;html=1;strokeColor=none;fillColor=none;align=center;verticalAlign=middle;whiteSpace=wrap;rounded=0;" parent="1" vertex="1">
          <mxGeometry x="640" y="50" width="40" height="20" as="geometry" />
        </mxCell>
        <mxCell id="EYJ2kRQVxU2eaPTJzhmD-58" style="edgeStyle=orthogonalEdgeStyle;rounded=0;orthogonalLoop=1;jettySize=auto;html=1;exitX=1;exitY=0.5;exitDx=0;exitDy=0;endArrow=none;endFill=0;" parent="1" source="EYJ2kRQVxU2eaPTJzhmD-23" edge="1">
          <mxGeometry relative="1" as="geometry">
            <mxPoint x="740" y="180" as="targetPoint" />
          </mxGeometry>
        </mxCell>
        <mxCell id="EYJ2kRQVxU2eaPTJzhmD-23" value="Игра 1" style="rounded=0;whiteSpace=wrap;html=1;" parent="1" vertex="1">
          <mxGeometry x="610" y="90" width="99" height="30" as="geometry" />
        </mxCell>
        <mxCell id="EYJ2kRQVxU2eaPTJzhmD-59" style="edgeStyle=orthogonalEdgeStyle;rounded=0;orthogonalLoop=1;jettySize=auto;html=1;exitX=1;exitY=0.5;exitDx=0;exitDy=0;endArrow=none;endFill=0;" parent="1" source="EYJ2kRQVxU2eaPTJzhmD-24" edge="1">
          <mxGeometry relative="1" as="geometry">
            <mxPoint x="740" y="134.9411764705883" as="targetPoint" />
          </mxGeometry>
        </mxCell>
        <mxCell id="EYJ2kRQVxU2eaPTJzhmD-24" value="Игра 2" style="rounded=0;whiteSpace=wrap;html=1;" parent="1" vertex="1">
          <mxGeometry x="610" y="120" width="99" height="30" as="geometry" />
        </mxCell>
        <mxCell id="EYJ2kRQVxU2eaPTJzhmD-61" style="edgeStyle=orthogonalEdgeStyle;rounded=0;orthogonalLoop=1;jettySize=auto;html=1;exitX=1;exitY=0.5;exitDx=0;exitDy=0;endArrow=none;endFill=0;" parent="1" source="EYJ2kRQVxU2eaPTJzhmD-25" edge="1">
          <mxGeometry relative="1" as="geometry">
            <mxPoint x="740" y="165.52941176470586" as="targetPoint" />
          </mxGeometry>
        </mxCell>
        <mxCell id="EYJ2kRQVxU2eaPTJzhmD-25" value="Игра 3" style="rounded=0;whiteSpace=wrap;html=1;" parent="1" vertex="1">
          <mxGeometry x="610" y="150" width="99" height="30" as="geometry" />
        </mxCell>
        <mxCell id="EYJ2kRQVxU2eaPTJzhmD-62" style="edgeStyle=orthogonalEdgeStyle;rounded=0;orthogonalLoop=1;jettySize=auto;html=1;exitX=1;exitY=0.5;exitDx=0;exitDy=0;endArrow=none;endFill=0;" parent="1" source="EYJ2kRQVxU2eaPTJzhmD-26" edge="1">
          <mxGeometry relative="1" as="geometry">
            <mxPoint x="740" y="194.9411764705883" as="targetPoint" />
          </mxGeometry>
        </mxCell>
        <mxCell id="EYJ2kRQVxU2eaPTJzhmD-26" value="Игра 4" style="rounded=0;whiteSpace=wrap;html=1;" parent="1" vertex="1">
          <mxGeometry x="610" y="180" width="99" height="30" as="geometry" />
        </mxCell>
        <mxCell id="EYJ2kRQVxU2eaPTJzhmD-63" style="edgeStyle=orthogonalEdgeStyle;rounded=0;orthogonalLoop=1;jettySize=auto;html=1;exitX=1;exitY=0.5;exitDx=0;exitDy=0;endArrow=none;endFill=0;" parent="1" source="EYJ2kRQVxU2eaPTJzhmD-27" edge="1">
          <mxGeometry relative="1" as="geometry">
            <mxPoint x="740" y="225.52941176470586" as="targetPoint" />
          </mxGeometry>
        </mxCell>
        <mxCell id="EYJ2kRQVxU2eaPTJzhmD-27" value="Игра 5" style="rounded=0;whiteSpace=wrap;html=1;" parent="1" vertex="1">
          <mxGeometry x="610" y="210" width="99" height="30" as="geometry" />
        </mxCell>
        <mxCell id="EYJ2kRQVxU2eaPTJzhmD-28" value="..." style="rounded=0;whiteSpace=wrap;html=1;" parent="1" vertex="1">
          <mxGeometry x="610" y="240" width="99" height="30" as="geometry" />
        </mxCell>
        <mxCell id="EYJ2kRQVxU2eaPTJzhmD-31" value="" style="rounded=1;whiteSpace=wrap;html=1;absoluteArcSize=1;arcSize=14;strokeWidth=2;" parent="1" vertex="1">
          <mxGeometry x="610" y="335" width="100" height="200" as="geometry" />
        </mxCell>
        <mxCell id="EYJ2kRQVxU2eaPTJzhmD-32" value="Игры, созданные пользователем" style="text;html=1;strokeColor=none;fillColor=none;align=center;verticalAlign=middle;whiteSpace=wrap;rounded=0;" parent="1" vertex="1">
          <mxGeometry x="640" y="300" width="40" height="20" as="geometry" />
        </mxCell>
        <mxCell id="EYJ2kRQVxU2eaPTJzhmD-57" style="edgeStyle=orthogonalEdgeStyle;rounded=0;orthogonalLoop=1;jettySize=auto;html=1;exitX=1;exitY=0.5;exitDx=0;exitDy=0;endArrow=none;endFill=0;" parent="1" source="EYJ2kRQVxU2eaPTJzhmD-34" edge="1">
          <mxGeometry relative="1" as="geometry">
            <mxPoint x="740" y="359.9411764705883" as="targetPoint" />
          </mxGeometry>
        </mxCell>
        <mxCell id="EYJ2kRQVxU2eaPTJzhmD-34" value="Игра 1" style="rounded=0;whiteSpace=wrap;html=1;" parent="1" vertex="1">
          <mxGeometry x="610" y="345" width="99" height="30" as="geometry" />
        </mxCell>
        <mxCell id="EYJ2kRQVxU2eaPTJzhmD-56" style="edgeStyle=orthogonalEdgeStyle;rounded=0;orthogonalLoop=1;jettySize=auto;html=1;exitX=1;exitY=0.5;exitDx=0;exitDy=0;endArrow=none;endFill=0;" parent="1" source="EYJ2kRQVxU2eaPTJzhmD-35" edge="1">
          <mxGeometry relative="1" as="geometry">
            <mxPoint x="740" y="390.52941176470586" as="targetPoint" />
          </mxGeometry>
        </mxCell>
        <mxCell id="EYJ2kRQVxU2eaPTJzhmD-35" value="Игра 2" style="rounded=0;whiteSpace=wrap;html=1;" parent="1" vertex="1">
          <mxGeometry x="610" y="375" width="99" height="30" as="geometry" />
        </mxCell>
        <mxCell id="EYJ2kRQVxU2eaPTJzhmD-55" style="edgeStyle=orthogonalEdgeStyle;rounded=0;orthogonalLoop=1;jettySize=auto;html=1;exitX=1;exitY=0.5;exitDx=0;exitDy=0;endArrow=none;endFill=0;" parent="1" source="EYJ2kRQVxU2eaPTJzhmD-36" edge="1">
          <mxGeometry relative="1" as="geometry">
            <mxPoint x="740" y="419.9411764705883" as="targetPoint" />
          </mxGeometry>
        </mxCell>
        <mxCell id="EYJ2kRQVxU2eaPTJzhmD-36" value="Игра 3" style="rounded=0;whiteSpace=wrap;html=1;" parent="1" vertex="1">
          <mxGeometry x="610" y="405" width="99" height="30" as="geometry" />
        </mxCell>
        <mxCell id="EYJ2kRQVxU2eaPTJzhmD-53" style="edgeStyle=orthogonalEdgeStyle;rounded=0;orthogonalLoop=1;jettySize=auto;html=1;exitX=1;exitY=0.5;exitDx=0;exitDy=0;endArrow=none;endFill=0;" parent="1" source="EYJ2kRQVxU2eaPTJzhmD-37" edge="1">
          <mxGeometry relative="1" as="geometry">
            <mxPoint x="740" y="450.52941176470586" as="targetPoint" />
          </mxGeometry>
        </mxCell>
        <mxCell id="EYJ2kRQVxU2eaPTJzhmD-37" value="Игра 4" style="rounded=0;whiteSpace=wrap;html=1;" parent="1" vertex="1">
          <mxGeometry x="610" y="435" width="99" height="30" as="geometry" />
        </mxCell>
        <mxCell id="EYJ2kRQVxU2eaPTJzhmD-52" style="edgeStyle=orthogonalEdgeStyle;rounded=0;orthogonalLoop=1;jettySize=auto;html=1;exitX=1;exitY=0.5;exitDx=0;exitDy=0;entryX=0;entryY=0.5;entryDx=0;entryDy=0;" parent="1" source="EYJ2kRQVxU2eaPTJzhmD-38" target="EYJ2kRQVxU2eaPTJzhmD-46" edge="1">
          <mxGeometry relative="1" as="geometry">
            <Array as="points">
              <mxPoint x="740" y="495" />
              <mxPoint x="740" y="180" />
            </Array>
          </mxGeometry>
        </mxCell>
        <mxCell id="EYJ2kRQVxU2eaPTJzhmD-38" value="Игра 5" style="rounded=0;whiteSpace=wrap;html=1;" parent="1" vertex="1">
          <mxGeometry x="610" y="465" width="99" height="30" as="geometry" />
        </mxCell>
        <mxCell id="EYJ2kRQVxU2eaPTJzhmD-42" style="edgeStyle=orthogonalEdgeStyle;rounded=0;orthogonalLoop=1;jettySize=auto;html=1;exitX=1;exitY=0.5;exitDx=0;exitDy=0;" parent="1" source="EYJ2kRQVxU2eaPTJzhmD-40" target="EYJ2kRQVxU2eaPTJzhmD-41" edge="1">
          <mxGeometry relative="1" as="geometry">
            <Array as="points">
              <mxPoint x="760" y="515" />
              <mxPoint x="760" y="435" />
            </Array>
          </mxGeometry>
        </mxCell>
        <mxCell id="EYJ2kRQVxU2eaPTJzhmD-40" value="Добавить игру" style="rounded=1;whiteSpace=wrap;html=1;absoluteArcSize=1;arcSize=14;strokeWidth=2;" parent="1" vertex="1">
          <mxGeometry x="615" y="505" width="90" height="20" as="geometry" />
        </mxCell>
        <mxCell id="EYJ2kRQVxU2eaPTJzhmD-41" value="" style="rounded=1;whiteSpace=wrap;html=1;absoluteArcSize=1;arcSize=14;strokeWidth=2;" parent="1" vertex="1">
          <mxGeometry x="790" y="335" width="100" height="200" as="geometry" />
        </mxCell>
        <mxCell id="EYJ2kRQVxU2eaPTJzhmD-43" value="Добавление игры" style="text;html=1;strokeColor=none;fillColor=none;align=center;verticalAlign=middle;whiteSpace=wrap;rounded=0;" parent="1" vertex="1">
          <mxGeometry x="820" y="300" width="40" height="20" as="geometry" />
        </mxCell>
        <mxCell id="EYJ2kRQVxU2eaPTJzhmD-44" value="Название&lt;br&gt;Кол-во игроков&lt;br&gt;Комплектация&lt;br&gt;Правила" style="rounded=0;whiteSpace=wrap;html=1;" parent="1" vertex="1">
          <mxGeometry x="800" y="345" width="80" height="150" as="geometry" />
        </mxCell>
        <mxCell id="EYJ2kRQVxU2eaPTJzhmD-45" value="Добавить" style="rounded=1;whiteSpace=wrap;html=1;absoluteArcSize=1;arcSize=14;strokeWidth=2;" parent="1" vertex="1">
          <mxGeometry x="795" y="505" width="90" height="20" as="geometry" />
        </mxCell>
        <mxCell id="EYJ2kRQVxU2eaPTJzhmD-46" value="" style="rounded=1;whiteSpace=wrap;html=1;absoluteArcSize=1;arcSize=14;strokeWidth=2;" parent="1" vertex="1">
          <mxGeometry x="790" y="80" width="100" height="200" as="geometry" />
        </mxCell>
        <mxCell id="EYJ2kRQVxU2eaPTJzhmD-47" value="Информация об игре" style="text;html=1;strokeColor=none;fillColor=none;align=center;verticalAlign=middle;whiteSpace=wrap;rounded=0;" parent="1" vertex="1">
          <mxGeometry x="820" y="50" width="40" height="20" as="geometry" />
        </mxCell>
        <mxCell id="EYJ2kRQVxU2eaPTJzhmD-51" value="&lt;h1&gt;&lt;font style=&quot;font-size: 16px&quot;&gt;Игра&lt;/font&gt;&lt;/h1&gt;&lt;p&gt;Lorem ipsum dolor sit amet, consectetur adipisicing elit, sed do eiusmod tempor incididunt ut labore et dolore magna aliqua.&lt;/p&gt;" style="text;html=1;strokeColor=none;fillColor=none;spacing=5;spacingTop=-20;whiteSpace=wrap;overflow=hidden;rounded=0;" parent="1" vertex="1">
          <mxGeometry x="792.5" y="87" width="95" height="183" as="geometry" />
        </mxCell>
        <mxCell id="SFY8rmF3XhI637HiAEmH-1" value="" style="rounded=1;whiteSpace=wrap;html=1;absoluteArcSize=1;arcSize=14;strokeWidth=2;" vertex="1" parent="1">
          <mxGeometry x="424" y="1001.5" width="100" height="200" as="geometry" />
        </mxCell>
        <mxCell id="SFY8rmF3XhI637HiAEmH-2" value="Инструментарий" style="text;html=1;strokeColor=none;fillColor=none;align=center;verticalAlign=middle;whiteSpace=wrap;rounded=0;" vertex="1" parent="1">
          <mxGeometry x="454" y="971.5" width="40" height="20" as="geometry" />
        </mxCell>
        <mxCell id="SFY8rmF3XhI637HiAEmH-30" style="edgeStyle=orthogonalEdgeStyle;rounded=0;orthogonalLoop=1;jettySize=auto;html=1;exitX=1;exitY=0.5;exitDx=0;exitDy=0;entryX=0;entryY=0.5;entryDx=0;entryDy=0;" edge="1" parent="1" source="SFY8rmF3XhI637HiAEmH-3" target="SFY8rmF3XhI637HiAEmH-6">
          <mxGeometry relative="1" as="geometry" />
        </mxCell>
        <mxCell id="SFY8rmF3XhI637HiAEmH-3" value="Симулятор кубика" style="rounded=1;whiteSpace=wrap;html=1;absoluteArcSize=1;arcSize=14;strokeWidth=2;" vertex="1" parent="1">
          <mxGeometry x="429" y="1041.5" width="90" height="30" as="geometry" />
        </mxCell>
        <mxCell id="SFY8rmF3XhI637HiAEmH-43" style="edgeStyle=orthogonalEdgeStyle;rounded=0;orthogonalLoop=1;jettySize=auto;html=1;exitX=1;exitY=0.5;exitDx=0;exitDy=0;entryX=0;entryY=0.5;entryDx=0;entryDy=0;" edge="1" parent="1" source="SFY8rmF3XhI637HiAEmH-4" target="SFY8rmF3XhI637HiAEmH-37">
          <mxGeometry relative="1" as="geometry" />
        </mxCell>
        <mxCell id="SFY8rmF3XhI637HiAEmH-4" value="Счётчики для игр" style="rounded=1;whiteSpace=wrap;html=1;absoluteArcSize=1;arcSize=14;strokeWidth=2;" vertex="1" parent="1">
          <mxGeometry x="429" y="1086.5" width="90" height="30" as="geometry" />
        </mxCell>
        <mxCell id="SFY8rmF3XhI637HiAEmH-79" style="edgeStyle=orthogonalEdgeStyle;rounded=0;orthogonalLoop=1;jettySize=auto;html=1;exitX=1;exitY=0.5;exitDx=0;exitDy=0;entryX=0;entryY=0.5;entryDx=0;entryDy=0;strokeColor=#000000;fontSize=11;" edge="1" parent="1" source="SFY8rmF3XhI637HiAEmH-5" target="SFY8rmF3XhI637HiAEmH-73">
          <mxGeometry relative="1" as="geometry" />
        </mxCell>
        <mxCell id="SFY8rmF3XhI637HiAEmH-5" value="Заметки" style="rounded=1;whiteSpace=wrap;html=1;absoluteArcSize=1;arcSize=14;strokeWidth=2;" vertex="1" parent="1">
          <mxGeometry x="429" y="1131.5" width="90" height="30" as="geometry" />
        </mxCell>
        <mxCell id="SFY8rmF3XhI637HiAEmH-6" value="" style="rounded=1;whiteSpace=wrap;html=1;absoluteArcSize=1;arcSize=14;strokeWidth=2;" vertex="1" parent="1">
          <mxGeometry x="610" y="600" width="100" height="200" as="geometry" />
        </mxCell>
        <mxCell id="SFY8rmF3XhI637HiAEmH-9" value="Симулятор кубика" style="text;html=1;strokeColor=none;fillColor=none;align=center;verticalAlign=middle;whiteSpace=wrap;rounded=0;" vertex="1" parent="1">
          <mxGeometry x="641" y="570" width="40" height="20" as="geometry" />
        </mxCell>
        <mxCell id="SFY8rmF3XhI637HiAEmH-28" value="Выбор кол-ва граней&lt;br&gt;Выбор кол-ва кубиков" style="rounded=0;whiteSpace=wrap;html=1;" vertex="1" parent="1">
          <mxGeometry x="620" y="610" width="80" height="150" as="geometry" />
        </mxCell>
        <mxCell id="SFY8rmF3XhI637HiAEmH-34" style="edgeStyle=orthogonalEdgeStyle;rounded=0;orthogonalLoop=1;jettySize=auto;html=1;exitX=1;exitY=0.5;exitDx=0;exitDy=0;entryX=0;entryY=0.5;entryDx=0;entryDy=0;" edge="1" parent="1" source="SFY8rmF3XhI637HiAEmH-29" target="SFY8rmF3XhI637HiAEmH-31">
          <mxGeometry relative="1" as="geometry" />
        </mxCell>
        <mxCell id="SFY8rmF3XhI637HiAEmH-29" value="Готово" style="rounded=1;whiteSpace=wrap;html=1;absoluteArcSize=1;arcSize=14;strokeWidth=2;" vertex="1" parent="1">
          <mxGeometry x="622.5" y="770" width="75" height="20" as="geometry" />
        </mxCell>
        <mxCell id="SFY8rmF3XhI637HiAEmH-31" value="" style="rounded=1;whiteSpace=wrap;html=1;absoluteArcSize=1;arcSize=14;strokeWidth=2;" vertex="1" parent="1">
          <mxGeometry x="790" y="600" width="100" height="200" as="geometry" />
        </mxCell>
        <mxCell id="SFY8rmF3XhI637HiAEmH-33" value="Анимация кубика(ов)" style="text;html=1;strokeColor=none;fillColor=none;align=center;verticalAlign=middle;whiteSpace=wrap;rounded=0;" vertex="1" parent="1">
          <mxGeometry x="817.5" y="570" width="40" height="20" as="geometry" />
        </mxCell>
        <mxCell id="SFY8rmF3XhI637HiAEmH-35" value="" style="verticalLabelPosition=bottom;verticalAlign=top;html=1;shape=mxgraph.basic.8_point_star;" vertex="1" parent="1">
          <mxGeometry x="790" y="635.5" width="100" height="131" as="geometry" />
        </mxCell>
        <mxCell id="SFY8rmF3XhI637HiAEmH-36" value="Анимация" style="text;html=1;strokeColor=none;fillColor=none;align=center;verticalAlign=middle;whiteSpace=wrap;rounded=0;" vertex="1" parent="1">
          <mxGeometry x="820.5" y="691" width="40" height="20" as="geometry" />
        </mxCell>
        <mxCell id="SFY8rmF3XhI637HiAEmH-37" value="" style="rounded=1;whiteSpace=wrap;html=1;absoluteArcSize=1;arcSize=14;strokeWidth=2;" vertex="1" parent="1">
          <mxGeometry x="609" y="1001.5" width="100" height="200" as="geometry" />
        </mxCell>
        <mxCell id="SFY8rmF3XhI637HiAEmH-38" value="Счётчики для игр" style="text;html=1;strokeColor=none;fillColor=none;align=center;verticalAlign=middle;whiteSpace=wrap;rounded=0;" vertex="1" parent="1">
          <mxGeometry x="638.5" y="968.5" width="40" height="20" as="geometry" />
        </mxCell>
        <mxCell id="SFY8rmF3XhI637HiAEmH-48" style="edgeStyle=orthogonalEdgeStyle;orthogonalLoop=1;jettySize=auto;html=1;exitX=1;exitY=0.5;exitDx=0;exitDy=0;entryX=0;entryY=0.5;entryDx=0;entryDy=0;fontSize=11;rounded=0;" edge="1" parent="1" source="SFY8rmF3XhI637HiAEmH-40" target="SFY8rmF3XhI637HiAEmH-44">
          <mxGeometry relative="1" as="geometry" />
        </mxCell>
        <mxCell id="SFY8rmF3XhI637HiAEmH-40" value="Универсальный счётчик" style="rounded=1;whiteSpace=wrap;html=1;absoluteArcSize=1;arcSize=14;strokeWidth=2;" vertex="1" parent="1">
          <mxGeometry x="614" y="1039" width="90" height="50" as="geometry" />
        </mxCell>
        <mxCell id="SFY8rmF3XhI637HiAEmH-56" style="edgeStyle=orthogonalEdgeStyle;rounded=0;orthogonalLoop=1;jettySize=auto;html=1;exitX=1;exitY=0.5;exitDx=0;exitDy=0;entryX=0;entryY=0.5;entryDx=0;entryDy=0;strokeColor=#000000;fontSize=11;" edge="1" parent="1" source="SFY8rmF3XhI637HiAEmH-41" target="SFY8rmF3XhI637HiAEmH-54">
          <mxGeometry relative="1" as="geometry" />
        </mxCell>
        <mxCell id="SFY8rmF3XhI637HiAEmH-41" value="Типовой счётчик" style="rounded=1;whiteSpace=wrap;html=1;absoluteArcSize=1;arcSize=14;strokeWidth=2;" vertex="1" parent="1">
          <mxGeometry x="614" y="1114" width="90" height="50" as="geometry" />
        </mxCell>
        <mxCell id="SFY8rmF3XhI637HiAEmH-44" value="" style="rounded=1;whiteSpace=wrap;html=1;absoluteArcSize=1;arcSize=14;strokeWidth=2;" vertex="1" parent="1">
          <mxGeometry x="790.5" y="854" width="100" height="200" as="geometry" />
        </mxCell>
        <mxCell id="SFY8rmF3XhI637HiAEmH-45" value="Универсальный счётчик" style="text;html=1;strokeColor=none;fillColor=none;align=center;verticalAlign=middle;whiteSpace=wrap;rounded=0;" vertex="1" parent="1">
          <mxGeometry x="821.5" y="824" width="40" height="20" as="geometry" />
        </mxCell>
        <mxCell id="SFY8rmF3XhI637HiAEmH-46" value="Выбор кол-ва игроков&lt;br&gt;Выбор кол-ва счётчиков&lt;br&gt;Включение/выключение очерёдности хода" style="rounded=0;whiteSpace=wrap;html=1;" vertex="1" parent="1">
          <mxGeometry x="800.5" y="864" width="80" height="150" as="geometry" />
        </mxCell>
        <mxCell id="SFY8rmF3XhI637HiAEmH-51" style="edgeStyle=orthogonalEdgeStyle;rounded=0;orthogonalLoop=1;jettySize=auto;html=1;exitX=1;exitY=0.5;exitDx=0;exitDy=0;entryX=0;entryY=0.5;entryDx=0;entryDy=0;strokeColor=#000000;fontSize=11;" edge="1" parent="1" source="SFY8rmF3XhI637HiAEmH-47" target="SFY8rmF3XhI637HiAEmH-49">
          <mxGeometry relative="1" as="geometry" />
        </mxCell>
        <mxCell id="SFY8rmF3XhI637HiAEmH-47" value="Далее" style="rounded=1;whiteSpace=wrap;html=1;absoluteArcSize=1;arcSize=14;strokeWidth=2;" vertex="1" parent="1">
          <mxGeometry x="803" y="1024" width="75" height="20" as="geometry" />
        </mxCell>
        <mxCell id="SFY8rmF3XhI637HiAEmH-49" value="" style="rounded=1;whiteSpace=wrap;html=1;absoluteArcSize=1;arcSize=14;strokeWidth=2;" vertex="1" parent="1">
          <mxGeometry x="970" y="854" width="100" height="200" as="geometry" />
        </mxCell>
        <mxCell id="SFY8rmF3XhI637HiAEmH-50" value="Настройка счётчика(ов)" style="text;html=1;strokeColor=none;fillColor=none;align=center;verticalAlign=middle;whiteSpace=wrap;rounded=0;fontSize=11;" vertex="1" parent="1">
          <mxGeometry x="1000" y="821" width="40" height="20" as="geometry" />
        </mxCell>
        <mxCell id="SFY8rmF3XhI637HiAEmH-52" value="&lt;div&gt;Названия счётчиков&lt;/div&gt;&lt;div&gt;&lt;span&gt;	&lt;/span&gt;Имена игроков&lt;/div&gt;&lt;div&gt;&lt;span&gt;	&lt;/span&gt;Выбор цвета для игроков&lt;/div&gt;&lt;div&gt;&lt;span&gt;	&lt;/span&gt;Определение очерёдности&lt;/div&gt;" style="rounded=0;whiteSpace=wrap;html=1;" vertex="1" parent="1">
          <mxGeometry x="980" y="864" width="80" height="150" as="geometry" />
        </mxCell>
        <mxCell id="SFY8rmF3XhI637HiAEmH-53" value="Готово" style="rounded=1;whiteSpace=wrap;html=1;absoluteArcSize=1;arcSize=14;strokeWidth=2;" vertex="1" parent="1">
          <mxGeometry x="982.5" y="1024" width="75" height="20" as="geometry" />
        </mxCell>
        <mxCell id="SFY8rmF3XhI637HiAEmH-54" value="" style="rounded=1;whiteSpace=wrap;html=1;absoluteArcSize=1;arcSize=14;strokeWidth=2;" vertex="1" parent="1">
          <mxGeometry x="791.5" y="1230" width="100" height="200" as="geometry" />
        </mxCell>
        <mxCell id="SFY8rmF3XhI637HiAEmH-55" value="Типовой счётчик" style="text;html=1;strokeColor=none;fillColor=none;align=center;verticalAlign=middle;whiteSpace=wrap;rounded=0;fontSize=11;" vertex="1" parent="1">
          <mxGeometry x="821.5" y="1200" width="40" height="20" as="geometry" />
        </mxCell>
        <mxCell id="SFY8rmF3XhI637HiAEmH-66" style="edgeStyle=orthogonalEdgeStyle;rounded=0;orthogonalLoop=1;jettySize=auto;html=1;exitX=1;exitY=0.5;exitDx=0;exitDy=0;entryX=0;entryY=0.5;entryDx=0;entryDy=0;strokeColor=#000000;fontSize=11;" edge="1" parent="1" source="SFY8rmF3XhI637HiAEmH-57" target="SFY8rmF3XhI637HiAEmH-59">
          <mxGeometry relative="1" as="geometry" />
        </mxCell>
        <mxCell id="SFY8rmF3XhI637HiAEmH-57" value="&lt;span style=&quot;color: rgb(36 , 41 , 46) ; font-family: , &amp;#34;consolas&amp;#34; , &amp;#34;liberation mono&amp;#34; , &amp;#34;menlo&amp;#34; , monospace ; background-color: rgb(255 , 255 , 255)&quot;&gt;Magic The Gathering&lt;/span&gt;" style="rounded=1;whiteSpace=wrap;html=1;absoluteArcSize=1;arcSize=14;strokeWidth=2;" vertex="1" parent="1">
          <mxGeometry x="796.5" y="1267.5" width="90" height="50" as="geometry" />
        </mxCell>
        <mxCell id="SFY8rmF3XhI637HiAEmH-72" style="edgeStyle=orthogonalEdgeStyle;rounded=0;orthogonalLoop=1;jettySize=auto;html=1;exitX=1;exitY=0.5;exitDx=0;exitDy=0;entryX=0;entryY=0.5;entryDx=0;entryDy=0;strokeColor=#000000;fontSize=11;" edge="1" parent="1" source="SFY8rmF3XhI637HiAEmH-58" target="SFY8rmF3XhI637HiAEmH-67">
          <mxGeometry relative="1" as="geometry" />
        </mxCell>
        <mxCell id="SFY8rmF3XhI637HiAEmH-58" value="Манчкин" style="rounded=1;whiteSpace=wrap;html=1;absoluteArcSize=1;arcSize=14;strokeWidth=2;" vertex="1" parent="1">
          <mxGeometry x="796.5" y="1342.5" width="90" height="50" as="geometry" />
        </mxCell>
        <mxCell id="SFY8rmF3XhI637HiAEmH-59" value="" style="rounded=1;whiteSpace=wrap;html=1;absoluteArcSize=1;arcSize=14;strokeWidth=2;" vertex="1" parent="1">
          <mxGeometry x="970" y="1105" width="100" height="200" as="geometry" />
        </mxCell>
        <mxCell id="SFY8rmF3XhI637HiAEmH-60" value="Счётчик жизни" style="rounded=1;whiteSpace=wrap;html=1;absoluteArcSize=1;arcSize=14;strokeWidth=2;" vertex="1" parent="1">
          <mxGeometry x="975" y="1133.75" width="90" height="30" as="geometry" />
        </mxCell>
        <mxCell id="SFY8rmF3XhI637HiAEmH-61" value="Счётчик карт" style="rounded=1;whiteSpace=wrap;html=1;absoluteArcSize=1;arcSize=14;strokeWidth=2;" vertex="1" parent="1">
          <mxGeometry x="975" y="1171.25" width="90" height="30" as="geometry" />
        </mxCell>
        <mxCell id="SFY8rmF3XhI637HiAEmH-62" value="Счётчик жетонов" style="rounded=1;whiteSpace=wrap;html=1;absoluteArcSize=1;arcSize=14;strokeWidth=2;" vertex="1" parent="1">
          <mxGeometry x="975" y="1208.75" width="90" height="30" as="geometry" />
        </mxCell>
        <mxCell id="SFY8rmF3XhI637HiAEmH-63" value="Magic The Gathering" style="text;html=1;strokeColor=none;fillColor=none;align=center;verticalAlign=middle;whiteSpace=wrap;rounded=0;" vertex="1" parent="1">
          <mxGeometry x="990" y="1071.5" width="60" height="20" as="geometry" />
        </mxCell>
        <mxCell id="SFY8rmF3XhI637HiAEmH-65" value="Таймер" style="rounded=1;whiteSpace=wrap;html=1;absoluteArcSize=1;arcSize=14;strokeWidth=2;" vertex="1" parent="1">
          <mxGeometry x="975" y="1246.25" width="90" height="30" as="geometry" />
        </mxCell>
        <mxCell id="SFY8rmF3XhI637HiAEmH-67" value="" style="rounded=1;whiteSpace=wrap;html=1;absoluteArcSize=1;arcSize=14;strokeWidth=2;" vertex="1" parent="1">
          <mxGeometry x="970" y="1360" width="100" height="200" as="geometry" />
        </mxCell>
        <mxCell id="SFY8rmF3XhI637HiAEmH-68" value="Манчкин" style="text;html=1;strokeColor=none;fillColor=none;align=center;verticalAlign=middle;whiteSpace=wrap;rounded=0;" vertex="1" parent="1">
          <mxGeometry x="1000" y="1330" width="40" height="20" as="geometry" />
        </mxCell>
        <mxCell id="SFY8rmF3XhI637HiAEmH-69" value="Счётчик уровня" style="rounded=1;whiteSpace=wrap;html=1;absoluteArcSize=1;arcSize=14;strokeWidth=2;" vertex="1" parent="1">
          <mxGeometry x="975" y="1400" width="90" height="30" as="geometry" />
        </mxCell>
        <mxCell id="SFY8rmF3XhI637HiAEmH-70" value="Счётчик экипировки" style="rounded=1;whiteSpace=wrap;html=1;absoluteArcSize=1;arcSize=14;strokeWidth=2;" vertex="1" parent="1">
          <mxGeometry x="975" y="1445" width="90" height="30" as="geometry" />
        </mxCell>
        <mxCell id="SFY8rmF3XhI637HiAEmH-71" value="Счётчик смывки" style="rounded=1;whiteSpace=wrap;html=1;absoluteArcSize=1;arcSize=14;strokeWidth=2;" vertex="1" parent="1">
          <mxGeometry x="975" y="1490" width="90" height="30" as="geometry" />
        </mxCell>
        <mxCell id="SFY8rmF3XhI637HiAEmH-73" value="" style="rounded=1;whiteSpace=wrap;html=1;absoluteArcSize=1;arcSize=14;strokeWidth=2;" vertex="1" parent="1">
          <mxGeometry x="609.5" y="1257.5" width="100" height="200" as="geometry" />
        </mxCell>
        <mxCell id="SFY8rmF3XhI637HiAEmH-74" value="Заметки" style="text;html=1;strokeColor=none;fillColor=none;align=center;verticalAlign=middle;whiteSpace=wrap;rounded=0;" vertex="1" parent="1">
          <mxGeometry x="639.5" y="1226.25" width="40" height="20" as="geometry" />
        </mxCell>
        <mxCell id="SFY8rmF3XhI637HiAEmH-75" value="" style="rounded=0;whiteSpace=wrap;html=1;" vertex="1" parent="1">
          <mxGeometry x="619.5" y="1267.5" width="80" height="150" as="geometry" />
        </mxCell>
        <mxCell id="SFY8rmF3XhI637HiAEmH-76" value="Добавить" style="rounded=1;whiteSpace=wrap;html=1;absoluteArcSize=1;arcSize=14;strokeWidth=2;" vertex="1" parent="1">
          <mxGeometry x="614.5" y="1427.5" width="90" height="20" as="geometry" />
        </mxCell>
        <mxCell id="SFY8rmF3XhI637HiAEmH-78" value="&lt;h1&gt;&lt;font style=&quot;font-size: 13px&quot;&gt;Название&lt;/font&gt;&lt;/h1&gt;&lt;p&gt;Lorem ipsum dolor sit amet, consectetur adipisicing elit, sed do eiusmod tempor incididunt ut labore et dolore magna aliqua.&lt;/p&gt;" style="text;html=1;strokeColor=none;fillColor=none;spacing=5;spacingTop=-20;whiteSpace=wrap;overflow=hidden;rounded=0;" vertex="1" parent="1">
          <mxGeometry x="619.5" y="1267.5" width="80.5" height="142.5" as="geometry" />
        </mxCell>
        <mxCell id="SFY8rmF3XhI637HiAEmH-80" value="" style="rounded=1;whiteSpace=wrap;html=1;absoluteArcSize=1;arcSize=14;strokeWidth=2;" vertex="1" parent="1">
          <mxGeometry x="424" y="2200" width="100" height="200" as="geometry" />
        </mxCell>
        <mxCell id="SFY8rmF3XhI637HiAEmH-81" value="D&amp;amp;D помощник" style="text;html=1;strokeColor=none;fillColor=none;align=center;verticalAlign=middle;whiteSpace=wrap;rounded=0;fontSize=11;" vertex="1" parent="1">
          <mxGeometry x="430" y="2170" width="86" height="20" as="geometry" />
        </mxCell>
        <mxCell id="SFY8rmF3XhI637HiAEmH-97" style="edgeStyle=orthogonalEdgeStyle;rounded=0;orthogonalLoop=1;jettySize=auto;html=1;exitX=1;exitY=0.5;exitDx=0;exitDy=0;entryX=0;entryY=0.5;entryDx=0;entryDy=0;strokeColor=#000000;fontSize=11;" edge="1" parent="1" source="SFY8rmF3XhI637HiAEmH-83" target="SFY8rmF3XhI637HiAEmH-91">
          <mxGeometry relative="1" as="geometry" />
        </mxCell>
        <mxCell id="SFY8rmF3XhI637HiAEmH-83" value="&lt;span style=&quot;color: rgb(36 , 41 , 46) ; font-family: , &amp;#34;consolas&amp;#34; , &amp;#34;liberation mono&amp;#34; , &amp;#34;menlo&amp;#34; , monospace ; background-color: rgb(255 , 255 , 255)&quot;&gt;Создание персонажа&lt;/span&gt;" style="rounded=1;whiteSpace=wrap;html=1;absoluteArcSize=1;arcSize=14;strokeWidth=2;" vertex="1" parent="1">
          <mxGeometry x="429" y="2237.5" width="90" height="50" as="geometry" />
        </mxCell>
        <mxCell id="SFY8rmF3XhI637HiAEmH-133" style="edgeStyle=orthogonalEdgeStyle;rounded=0;orthogonalLoop=1;jettySize=auto;html=1;exitX=1;exitY=0.5;exitDx=0;exitDy=0;entryX=0;entryY=1;entryDx=0;entryDy=0;strokeColor=#000000;fontSize=11;" edge="1" parent="1" source="SFY8rmF3XhI637HiAEmH-84" target="SFY8rmF3XhI637HiAEmH-129">
          <mxGeometry relative="1" as="geometry">
            <Array as="points">
              <mxPoint x="565" y="2338" />
              <mxPoint x="565" y="2660" />
            </Array>
          </mxGeometry>
        </mxCell>
        <mxCell id="SFY8rmF3XhI637HiAEmH-84" value="Выбор персонажа" style="rounded=1;whiteSpace=wrap;html=1;absoluteArcSize=1;arcSize=14;strokeWidth=2;" vertex="1" parent="1">
          <mxGeometry x="429" y="2312.5" width="90" height="50" as="geometry" />
        </mxCell>
        <mxCell id="SFY8rmF3XhI637HiAEmH-91" value="" style="rounded=1;whiteSpace=wrap;html=1;absoluteArcSize=1;arcSize=14;strokeWidth=2;" vertex="1" parent="1">
          <mxGeometry x="608.5" y="1903.5" width="100" height="200" as="geometry" />
        </mxCell>
        <mxCell id="SFY8rmF3XhI637HiAEmH-123" style="edgeStyle=orthogonalEdgeStyle;rounded=0;orthogonalLoop=1;jettySize=auto;html=1;exitX=1;exitY=0.5;exitDx=0;exitDy=0;entryX=0;entryY=0.5;entryDx=0;entryDy=0;strokeColor=#000000;fontSize=11;" edge="1" parent="1" source="SFY8rmF3XhI637HiAEmH-92" target="SFY8rmF3XhI637HiAEmH-100">
          <mxGeometry relative="1" as="geometry">
            <Array as="points">
              <mxPoint x="730" y="1947" />
              <mxPoint x="730" y="1628" />
            </Array>
          </mxGeometry>
        </mxCell>
        <mxCell id="SFY8rmF3XhI637HiAEmH-92" value="Данные персонажа" style="rounded=1;whiteSpace=wrap;html=1;absoluteArcSize=1;arcSize=14;strokeWidth=2;" vertex="1" parent="1">
          <mxGeometry x="613.5" y="1932.25" width="90" height="30" as="geometry" />
        </mxCell>
        <mxCell id="SFY8rmF3XhI637HiAEmH-124" style="edgeStyle=orthogonalEdgeStyle;rounded=0;orthogonalLoop=1;jettySize=auto;html=1;exitX=1;exitY=0.5;exitDx=0;exitDy=0;entryX=0.014;entryY=0.431;entryDx=0;entryDy=0;entryPerimeter=0;strokeColor=#000000;fontSize=11;" edge="1" parent="1" source="SFY8rmF3XhI637HiAEmH-93" target="SFY8rmF3XhI637HiAEmH-105">
          <mxGeometry relative="1" as="geometry" />
        </mxCell>
        <mxCell id="SFY8rmF3XhI637HiAEmH-93" value="Характеристики" style="rounded=1;whiteSpace=wrap;html=1;absoluteArcSize=1;arcSize=14;strokeWidth=2;" vertex="1" parent="1">
          <mxGeometry x="613.5" y="1969.75" width="90" height="30" as="geometry" />
        </mxCell>
        <mxCell id="SFY8rmF3XhI637HiAEmH-115" style="edgeStyle=orthogonalEdgeStyle;rounded=0;orthogonalLoop=1;jettySize=auto;html=1;exitX=1;exitY=0.5;exitDx=0;exitDy=0;entryX=0;entryY=0.5;entryDx=0;entryDy=0;strokeColor=#000000;fontSize=11;" edge="1" parent="1" source="SFY8rmF3XhI637HiAEmH-94" target="SFY8rmF3XhI637HiAEmH-111">
          <mxGeometry relative="1" as="geometry" />
        </mxCell>
        <mxCell id="SFY8rmF3XhI637HiAEmH-94" value="Способности" style="rounded=1;whiteSpace=wrap;html=1;absoluteArcSize=1;arcSize=14;strokeWidth=2;" vertex="1" parent="1">
          <mxGeometry x="613.5" y="2007.25" width="90" height="30" as="geometry" />
        </mxCell>
        <mxCell id="SFY8rmF3XhI637HiAEmH-95" value="Создание персонажа" style="text;html=1;strokeColor=none;fillColor=none;align=center;verticalAlign=middle;whiteSpace=wrap;rounded=0;" vertex="1" parent="1">
          <mxGeometry x="628.5" y="1870" width="60" height="20" as="geometry" />
        </mxCell>
        <mxCell id="SFY8rmF3XhI637HiAEmH-122" style="edgeStyle=orthogonalEdgeStyle;rounded=0;orthogonalLoop=1;jettySize=auto;html=1;exitX=1;exitY=0.5;exitDx=0;exitDy=0;entryX=0;entryY=0.5;entryDx=0;entryDy=0;strokeColor=#000000;fontSize=11;" edge="1" parent="1" source="SFY8rmF3XhI637HiAEmH-96" target="SFY8rmF3XhI637HiAEmH-116">
          <mxGeometry relative="1" as="geometry">
            <Array as="points">
              <mxPoint x="730" y="2060" />
              <mxPoint x="730" y="2398" />
            </Array>
          </mxGeometry>
        </mxCell>
        <mxCell id="SFY8rmF3XhI637HiAEmH-96" value="Снаряжение" style="rounded=1;whiteSpace=wrap;html=1;absoluteArcSize=1;arcSize=14;strokeWidth=2;" vertex="1" parent="1">
          <mxGeometry x="613.5" y="2044.75" width="90" height="30" as="geometry" />
        </mxCell>
        <mxCell id="SFY8rmF3XhI637HiAEmH-100" value="" style="rounded=1;whiteSpace=wrap;html=1;absoluteArcSize=1;arcSize=14;strokeWidth=2;" vertex="1" parent="1">
          <mxGeometry x="791.5" y="1527.5" width="100" height="200" as="geometry" />
        </mxCell>
        <mxCell id="SFY8rmF3XhI637HiAEmH-101" value="Настройка персонажа" style="text;html=1;strokeColor=none;fillColor=none;align=center;verticalAlign=middle;whiteSpace=wrap;rounded=0;fontSize=11;" vertex="1" parent="1">
          <mxGeometry x="821.5" y="1495" width="40" height="20" as="geometry" />
        </mxCell>
        <mxCell id="SFY8rmF3XhI637HiAEmH-102" value="&lt;div&gt;Форма заполнения данных персонажа&amp;nbsp;&lt;/div&gt;" style="rounded=0;whiteSpace=wrap;html=1;" vertex="1" parent="1">
          <mxGeometry x="801.5" y="1540" width="80" height="150" as="geometry" />
        </mxCell>
        <mxCell id="SFY8rmF3XhI637HiAEmH-103" value="Готово" style="rounded=1;whiteSpace=wrap;html=1;absoluteArcSize=1;arcSize=14;strokeWidth=2;" vertex="1" parent="1">
          <mxGeometry x="804" y="1698.75" width="75" height="20" as="geometry" />
        </mxCell>
        <mxCell id="SFY8rmF3XhI637HiAEmH-105" value="" style="rounded=1;whiteSpace=wrap;html=1;absoluteArcSize=1;arcSize=14;strokeWidth=2;" vertex="1" parent="1">
          <mxGeometry x="791.5" y="1780" width="100" height="200" as="geometry" />
        </mxCell>
        <mxCell id="SFY8rmF3XhI637HiAEmH-106" value="Характеристики" style="text;html=1;strokeColor=none;fillColor=none;align=center;verticalAlign=middle;whiteSpace=wrap;rounded=0;fontSize=11;" vertex="1" parent="1">
          <mxGeometry x="821.5" y="1752.5" width="40" height="20" as="geometry" />
        </mxCell>
        <mxCell id="SFY8rmF3XhI637HiAEmH-107" value="&lt;div&gt;Форма заполнения характеристик персонажа&amp;nbsp;&lt;/div&gt;" style="rounded=0;whiteSpace=wrap;html=1;" vertex="1" parent="1">
          <mxGeometry x="801.5" y="1790.63" width="80" height="150" as="geometry" />
        </mxCell>
        <mxCell id="SFY8rmF3XhI637HiAEmH-108" value="Готово" style="rounded=1;whiteSpace=wrap;html=1;absoluteArcSize=1;arcSize=14;strokeWidth=2;" vertex="1" parent="1">
          <mxGeometry x="804" y="1949.38" width="75" height="20" as="geometry" />
        </mxCell>
        <mxCell id="SFY8rmF3XhI637HiAEmH-111" value="" style="rounded=1;whiteSpace=wrap;html=1;absoluteArcSize=1;arcSize=14;strokeWidth=2;" vertex="1" parent="1">
          <mxGeometry x="790" y="2037.5" width="100" height="200" as="geometry" />
        </mxCell>
        <mxCell id="SFY8rmF3XhI637HiAEmH-112" value="Способности" style="text;html=1;strokeColor=none;fillColor=none;align=center;verticalAlign=middle;whiteSpace=wrap;rounded=0;fontSize=11;" vertex="1" parent="1">
          <mxGeometry x="820" y="2010" width="40" height="20" as="geometry" />
        </mxCell>
        <mxCell id="SFY8rmF3XhI637HiAEmH-113" value="&lt;div&gt;Форма заполнения способностей персонажа&amp;nbsp;&lt;/div&gt;" style="rounded=0;whiteSpace=wrap;html=1;" vertex="1" parent="1">
          <mxGeometry x="800" y="2048.13" width="80" height="150" as="geometry" />
        </mxCell>
        <mxCell id="SFY8rmF3XhI637HiAEmH-114" value="Готово" style="rounded=1;whiteSpace=wrap;html=1;absoluteArcSize=1;arcSize=14;strokeWidth=2;" vertex="1" parent="1">
          <mxGeometry x="802.5" y="2206.88" width="75" height="20" as="geometry" />
        </mxCell>
        <mxCell id="SFY8rmF3XhI637HiAEmH-116" value="" style="rounded=1;whiteSpace=wrap;html=1;absoluteArcSize=1;arcSize=14;strokeWidth=2;" vertex="1" parent="1">
          <mxGeometry x="790.5" y="2297.5" width="100" height="200" as="geometry" />
        </mxCell>
        <mxCell id="SFY8rmF3XhI637HiAEmH-117" value="Снаряжение" style="text;html=1;strokeColor=none;fillColor=none;align=center;verticalAlign=middle;whiteSpace=wrap;rounded=0;fontSize=11;" vertex="1" parent="1">
          <mxGeometry x="820.5" y="2270" width="40" height="20" as="geometry" />
        </mxCell>
        <mxCell id="SFY8rmF3XhI637HiAEmH-118" value="&lt;div&gt;Форма заполнения снаряжения персонажа&amp;nbsp;&lt;/div&gt;" style="rounded=0;whiteSpace=wrap;html=1;" vertex="1" parent="1">
          <mxGeometry x="800.5" y="2308.13" width="80" height="150" as="geometry" />
        </mxCell>
        <mxCell id="SFY8rmF3XhI637HiAEmH-119" value="Готово" style="rounded=1;whiteSpace=wrap;html=1;absoluteArcSize=1;arcSize=14;strokeWidth=2;" vertex="1" parent="1">
          <mxGeometry x="803" y="2466.88" width="75" height="20" as="geometry" />
        </mxCell>
        <mxCell id="SFY8rmF3XhI637HiAEmH-125" value="" style="rounded=1;whiteSpace=wrap;html=1;absoluteArcSize=1;arcSize=14;strokeWidth=2;" vertex="1" parent="1">
          <mxGeometry x="611" y="2560" width="100" height="200" as="geometry" />
        </mxCell>
        <mxCell id="SFY8rmF3XhI637HiAEmH-126" value="Персонажи" style="text;html=1;strokeColor=none;fillColor=none;align=center;verticalAlign=middle;whiteSpace=wrap;rounded=0;" vertex="1" parent="1">
          <mxGeometry x="641" y="2530" width="40" height="20" as="geometry" />
        </mxCell>
        <mxCell id="SFY8rmF3XhI637HiAEmH-137" style="edgeStyle=orthogonalEdgeStyle;rounded=0;orthogonalLoop=1;jettySize=auto;html=1;exitX=1;exitY=0.5;exitDx=0;exitDy=0;entryX=0;entryY=0.5;entryDx=0;entryDy=0;strokeColor=#000000;fontSize=11;" edge="1" parent="1" source="SFY8rmF3XhI637HiAEmH-127" target="SFY8rmF3XhI637HiAEmH-134">
          <mxGeometry relative="1" as="geometry" />
        </mxCell>
        <mxCell id="SFY8rmF3XhI637HiAEmH-127" value="Персонаж 1" style="rounded=0;whiteSpace=wrap;html=1;" vertex="1" parent="1">
          <mxGeometry x="611" y="2570" width="99" height="30" as="geometry" />
        </mxCell>
        <mxCell id="SFY8rmF3XhI637HiAEmH-139" style="edgeStyle=orthogonalEdgeStyle;rounded=0;orthogonalLoop=1;jettySize=auto;html=1;exitX=1;exitY=0.5;exitDx=0;exitDy=0;strokeColor=#000000;fontSize=11;endArrow=none;endFill=0;" edge="1" parent="1" source="SFY8rmF3XhI637HiAEmH-128">
          <mxGeometry relative="1" as="geometry">
            <mxPoint x="749.9999999999995" y="2615.529411764706" as="targetPoint" />
          </mxGeometry>
        </mxCell>
        <mxCell id="SFY8rmF3XhI637HiAEmH-128" value="Персонаж&amp;nbsp;2" style="rounded=0;whiteSpace=wrap;html=1;" vertex="1" parent="1">
          <mxGeometry x="611" y="2600" width="99" height="30" as="geometry" />
        </mxCell>
        <mxCell id="SFY8rmF3XhI637HiAEmH-140" style="edgeStyle=orthogonalEdgeStyle;rounded=0;orthogonalLoop=1;jettySize=auto;html=1;exitX=1;exitY=0.5;exitDx=0;exitDy=0;endArrow=none;endFill=0;strokeColor=#000000;fontSize=11;" edge="1" parent="1" source="SFY8rmF3XhI637HiAEmH-129">
          <mxGeometry relative="1" as="geometry">
            <mxPoint x="749.9999999999995" y="2644.9411764705883" as="targetPoint" />
          </mxGeometry>
        </mxCell>
        <mxCell id="SFY8rmF3XhI637HiAEmH-129" value="Персонаж&amp;nbsp;3" style="rounded=0;whiteSpace=wrap;html=1;" vertex="1" parent="1">
          <mxGeometry x="611" y="2630" width="99" height="30" as="geometry" />
        </mxCell>
        <mxCell id="SFY8rmF3XhI637HiAEmH-141" style="edgeStyle=orthogonalEdgeStyle;rounded=0;orthogonalLoop=1;jettySize=auto;html=1;exitX=1;exitY=0.5;exitDx=0;exitDy=0;entryX=0;entryY=0.5;entryDx=0;entryDy=0;endArrow=none;endFill=0;strokeColor=#000000;fontSize=11;" edge="1" parent="1" source="SFY8rmF3XhI637HiAEmH-130" target="SFY8rmF3XhI637HiAEmH-134">
          <mxGeometry relative="1" as="geometry" />
        </mxCell>
        <mxCell id="SFY8rmF3XhI637HiAEmH-130" value="Персонаж&amp;nbsp;4" style="rounded=0;whiteSpace=wrap;html=1;" vertex="1" parent="1">
          <mxGeometry x="611" y="2660" width="99" height="30" as="geometry" />
        </mxCell>
        <mxCell id="SFY8rmF3XhI637HiAEmH-142" style="edgeStyle=orthogonalEdgeStyle;rounded=0;orthogonalLoop=1;jettySize=auto;html=1;exitX=1;exitY=0.5;exitDx=0;exitDy=0;endArrow=none;endFill=0;strokeColor=#000000;fontSize=11;" edge="1" parent="1" source="SFY8rmF3XhI637HiAEmH-131">
          <mxGeometry relative="1" as="geometry">
            <mxPoint x="749.9999999999995" y="2670" as="targetPoint" />
          </mxGeometry>
        </mxCell>
        <mxCell id="SFY8rmF3XhI637HiAEmH-131" value="Персонаж&amp;nbsp;5" style="rounded=0;whiteSpace=wrap;html=1;" vertex="1" parent="1">
          <mxGeometry x="611" y="2690" width="99" height="30" as="geometry" />
        </mxCell>
        <mxCell id="SFY8rmF3XhI637HiAEmH-132" value="..." style="rounded=0;whiteSpace=wrap;html=1;" vertex="1" parent="1">
          <mxGeometry x="611" y="2720" width="99" height="30" as="geometry" />
        </mxCell>
        <mxCell id="SFY8rmF3XhI637HiAEmH-145" style="edgeStyle=orthogonalEdgeStyle;rounded=0;orthogonalLoop=1;jettySize=auto;html=1;exitX=1;exitY=0.5;exitDx=0;exitDy=0;entryX=1;entryY=0.5;entryDx=0;entryDy=0;endArrow=classic;endFill=1;strokeColor=#000000;fontSize=11;" edge="1" parent="1" source="SFY8rmF3XhI637HiAEmH-134" target="SFY8rmF3XhI637HiAEmH-100">
          <mxGeometry relative="1" as="geometry">
            <Array as="points">
              <mxPoint x="940" y="2660" />
              <mxPoint x="940" y="1628" />
            </Array>
          </mxGeometry>
        </mxCell>
        <mxCell id="SFY8rmF3XhI637HiAEmH-134" value="" style="rounded=1;whiteSpace=wrap;html=1;absoluteArcSize=1;arcSize=14;strokeWidth=2;" vertex="1" parent="1">
          <mxGeometry x="790" y="2560" width="100" height="200" as="geometry" />
        </mxCell>
        <mxCell id="SFY8rmF3XhI637HiAEmH-135" value="Информация о персонаже" style="text;html=1;strokeColor=none;fillColor=none;align=center;verticalAlign=middle;whiteSpace=wrap;rounded=0;" vertex="1" parent="1">
          <mxGeometry x="820" y="2530" width="40" height="20" as="geometry" />
        </mxCell>
        <mxCell id="SFY8rmF3XhI637HiAEmH-136" value="&lt;h1&gt;&lt;span style=&quot;font-size: 16px&quot;&gt;Персонаж&lt;/span&gt;&lt;/h1&gt;&lt;p&gt;Lorem ipsum dolor sit amet, consectetur adipisicing elit, sed do eiusmod tempor incididunt ut labore et dolore magna aliqua.&lt;/p&gt;" style="text;html=1;strokeColor=none;fillColor=none;spacing=5;spacingTop=-20;whiteSpace=wrap;overflow=hidden;rounded=0;" vertex="1" parent="1">
          <mxGeometry x="794" y="2570" width="95" height="150" as="geometry" />
        </mxCell>
        <mxCell id="SFY8rmF3XhI637HiAEmH-143" value="Настроить" style="rounded=1;whiteSpace=wrap;html=1;absoluteArcSize=1;arcSize=14;strokeWidth=2;" vertex="1" parent="1">
          <mxGeometry x="795" y="2730" width="90" height="20" as="geometry" />
        </mxCell>
      </root>
    </mxGraphModel>
  </diagram>
</mxfile>
